<?xml version="1.0" standalone="no"?><!DOCTYPE svg PUBLIC "-//W3C//DTD SVG 1.1//EN" "http://www.w3.org/Graphics/SVG/1.1/DTD/svg11.dtd"><svg t="1680487888801" class="icon" viewBox="0 0 1024 1024" version="1.1" xmlns="http://www.w3.org/2000/svg" p-id="13963" xmlns:xlink="http://www.w3.org/1999/xlink" width="24" height="24"><path d="M384 480H224a96 96 0 0 1-96-96V224a96 96 0 0 1 96-96h160a96 96 0 0 1 96 96v160a96 96 0 0 1-96 96zM384 896H224a96 96 0 0 1-96-96v-160a96 96 0 0 1 96-96h160a96 96 0 0 1 96 96v160a96 96 0 0 1-96 96zM720 501.44a95.616 95.616 0 0 1-67.872-28.064l-101.504-101.504a96 96 0 0 1 0-135.744l101.504-101.504a96 96 0 0 1 135.744 0l101.504 101.504a96 96 0 0 1 0 135.744l-101.504 101.504a95.616 95.616 0 0 1-67.872 28.064zM800 896h-160a96 96 0 0 1-96-96v-160a96 96 0 0 1 96-96h160a96 96 0 0 1 96 96v160a96 96 0 0 1-96 96z" p-id="13964" fill="#2c2c2c"></path></svg>