<?xml version="1.0" standalone="no"?><!DOCTYPE svg PUBLIC "-//W3C//DTD SVG 1.1//EN" "http://www.w3.org/Graphics/SVG/1.1/DTD/svg11.dtd"><svg height="145" legacy-metrics="false" node-id="1" sillyvg="true" template-height="145" template-width="250" version="1.1" viewBox="0 0 250 145" width="250" xmlns="http://www.w3.org/2000/svg" xmlns:xlink="http://www.w3.org/1999/xlink"><defs node-id="77"><linearGradient gradientUnits="objectBoundingBox" id="linearGradient-1" node-id="7" x1="0.5" x2="0.5" y1="0" y2="1"><stop offset="0" stop-color="#c1dbfe"></stop><stop offset="1" stop-color="#ffffff"></stop></linearGradient><linearGradient gradientUnits="objectBoundingBox" id="linearGradient-2" node-id="10" x1="0.5366026" x2="0.1472857" y1="0.6903715" y2="0.39582884"><stop offset="0" stop-color="#adaeb6"></stop><stop offset="1" stop-color="#ffffff" stop-opacity="0"></stop></linearGradient><linearGradient gradientUnits="objectBoundingBox" id="linearGradient-3" node-id="13" x1="0.5" x2="0.32400465" y1="0" y2="0.82585067"><stop offset="0" stop-color="#6d94e3"></stop><stop offset="1" stop-color="#658dde"></stop></linearGradient><linearGradient gradientUnits="objectBoundingBox" id="linearGradient-4" node-id="16" x1="0.5" x2="0.31971774" y1="0" y2="0.82585067"><stop offset="0" stop-color="#b2c5f4"></stop><stop offset="1" stop-color="#9eb5eb"></stop></linearGradient><filter height="1.161" id="filter-7" node-id="23" width="1.341" x="-0.171" y="-0.123"><feOffset color-interpolation-filters="linearRGB" dx="0" dy="2" in="SourceAlpha" result="shadowOffsetOuter1"></feOffset><feGaussianBlur color-interpolation-filters="linearRGB" in="shadowOffsetOuter1" result="shadowBlurOuter1" stdDeviation="4.5 4.5"></feGaussianBlur><feColorMatrix color-interpolation-filters="linearRGB" in="shadowBlurOuter1" result="result3" type="matrix" values="0 0 0 0 0.65381567 0 0 0 0 0.65381567 0 0 0 0 0.65381567 0 0 0 0.14453125 0"></feColorMatrix></filter><linearGradient gradientUnits="objectBoundingBox" id="linearGradient-5" node-id="19" x1="0.5" x2="0.39082652" y1="0" y2="0.6836543"><stop offset="0" stop-color="#eaeef1"></stop><stop offset="1" stop-color="#feffff"></stop></linearGradient><linearGradient gradientUnits="objectBoundingBox" id="linearGradient-8" node-id="27" x1="0.5" x2="0.57458925" y1="0.36850756" y2="0.6031876"><stop offset="0" stop-color="#4d7be1"></stop><stop offset="0.45177892" stop-color="#9bb9fc"></stop><stop offset="1" stop-color="#5a85e3"></stop></linearGradient></defs><g node-id="187"><g node-id="188"><path d="M 249.28 145.00 L 243.55 138.33 L 237.46 132.03 L 230.99 126.10 L 224.13 120.54 L 216.97 115.38 L 209.52 110.62 L 201.77 106.27 L 193.69 102.31 L 185.43 98.81 L 176.95 95.74 L 168.25 93.12 L 159.29 90.93 L 150.26 89.23 L 141.09 88.00 L 131.76 87.26 L 122.26 87.00 L 113.06 87.27 L 104.07 88.02 L 95.27 89.26 L 86.64 90.97 L 78.09 93.16 L 69.77 95.78 L 61.69 98.82 L 53.81 102.29 L 46.11 106.18 L 38.69 110.45 L 31.54 115.08 L 24.64 120.10 L 18.01 125.47 L 11.70 131.16 L 5.70 137.17 L 0.00 143.52 L 5.81 143.55 L 21.73 143.65 L 45.51 143.79 L 74.92 143.96 L 107.69 144.16 L 141.59 144.36 L 174.37 144.55 L 203.77 144.73 L 227.56 144.87 L 243.48 144.97 L 249.28 145.00 Z" fill="url(#linearGradient-1)" fill-rule="evenodd" group-id="1,2" id="椭圆形" node-id="34" stroke-linecap="butt" stroke-width="1" target-height="58" target-width="249.2835" target-x="0" target-y="87"></path><g node-id="189"><path d="M 93.00 115.00 L 158.00 107.43 L 99.63 46.00 L 49.00 71.32 Z" fill="url(#linearGradient-2)" fill-opacity="0.4317104" fill-rule="evenodd" group-id="1,2,3" id="路径-4" node-id="35" stroke-linecap="butt" stroke-opacity="0.4317104" stroke-width="1" target-height="69" target-width="109" target-x="49" target-y="46"></path></g><g node-id="190"><g node-id="194"><g node-id="198"><path d="M 64.75 97.60 L 61.76 97.60 L 61.76 87.48 L 61.88 86.91 L 62.20 86.45 L 62.66 86.13 L 63.25 86.02 L 63.26 86.02 L 63.85 86.13 L 64.32 86.45 L 64.63 86.91 L 64.75 87.48 L 64.75 97.60 Z" fill="#bae637" fill-rule="evenodd" group-id="1,2,4,8,12" node-id="137" stroke-linecap="butt" stroke-width="1" target-height="11.580818" target-width="2.9912949" target-x="61.7612" target-y="86.01782"></path></g><path d="M 66.24 100.08 L 63.24 100.08 L 63.24 94.79 L 63.36 94.23 L 63.67 93.79 L 64.12 93.48 L 64.69 93.37 L 64.79 93.37 L 65.36 93.48 L 65.81 93.79 L 66.12 94.23 L 66.24 94.79 L 66.24 100.08 Z" fill="#389e0d" fill-rule="evenodd" group-id="1,2,4,8" id="Fill-3" node-id="40" stroke-linecap="butt" stroke-width="1" target-height="6.7057724" target-width="3" target-x="63.239998" target-y="93.370476"></path><path d="M 62.20 97.59 L 59.18 97.59 L 59.18 91.85 L 59.30 91.29 L 59.61 90.84 L 60.07 90.53 L 60.64 90.42 L 60.74 90.42 L 61.31 90.53 L 61.77 90.84 L 62.08 91.29 L 62.20 91.85 L 62.20 97.59 Z" fill="#7cb305" fill-rule="evenodd" group-id="1,2,4,8" id="Fill-5" node-id="41" stroke-linecap="butt" stroke-width="1" target-height="7.1749725" target-width="3.0200005" target-x="59.18" target-y="90.41838"></path><path d="M 66.42 105.99 L 58.56 105.99 L 58.16 105.83 L 58.00 105.44 L 58.00 97.81 L 58.16 97.42 L 58.56 97.26 L 66.42 97.26 L 66.82 97.42 L 66.98 97.81 L 66.98 105.44 L 66.82 105.83 L 66.42 105.99" fill="#3b68b8" fill-rule="evenodd" group-id="1,2,4,8,13" node-id="143" stroke-linecap="butt" stroke-width="1" target-height="8.731949" target-width="8.980705" target-x="58" target-y="97.25661"></path></g></g><g node-id="191"><g node-id="195"><g node-id="200"><path d="M 196.85 102.80 L 192.49 102.80 L 192.49 89.01 L 192.66 88.24 L 193.12 87.61 L 193.80 87.18 L 194.65 87.02 L 194.68 87.02 L 195.53 87.18 L 196.21 87.61 L 196.68 88.24 L 196.85 89.01 L 196.85 102.80 Z" fill="#bae637" fill-rule="evenodd" group-id="1,2,5,9,14" node-id="151" stroke-linecap="butt" stroke-width="1" target-height="15.77343" target-width="4.3623047" target-x="192.48509" target-y="87.02427"></path></g><path d="M 199.02 106.17 L 194.64 106.17 L 194.64 98.97 L 194.81 98.22 L 195.26 97.61 L 195.93 97.19 L 196.76 97.04 L 196.89 97.04 L 197.73 97.19 L 198.40 97.61 L 198.85 98.22 L 199.02 98.97 L 199.02 106.17 Z" fill="#389e0d" fill-rule="evenodd" group-id="1,2,5,9" id="Fill-3" node-id="48" stroke-linecap="butt" stroke-width="1" target-height="9.133461" target-width="4.375" target-x="194.64166" target-y="97.03881"></path><path d="M 193.12 102.79 L 188.72 102.79 L 188.72 94.96 L 188.89 94.20 L 189.34 93.59 L 190.01 93.17 L 190.85 93.02 L 191.00 93.02 L 191.84 93.17 L 192.50 93.59 L 192.96 94.20 L 193.12 94.96 L 193.12 102.79 Z" fill="#7cb305" fill-rule="evenodd" group-id="1,2,5,9" id="Fill-5" node-id="49" stroke-linecap="butt" stroke-width="1" target-height="9.772537" target-width="4.4041595" target-x="188.72084" target-y="93.01796"></path><path d="M 199.28 114.23 L 187.82 114.23 L 187.23 114.00 L 187.00 113.48 L 187.00 103.08 L 187.23 102.56 L 187.82 102.33 L 199.28 102.33 L 199.86 102.56 L 200.10 103.08 L 200.10 113.48 L 199.86 114.00 L 199.28 114.23" fill="#3b68b8" fill-rule="evenodd" group-id="1,2,5,9,15" node-id="157" stroke-linecap="butt" stroke-width="1" target-height="11.893166" target-width="13.096863" target-x="187" target-y="102.33184"></path></g></g><g node-id="192"><g node-id="196"><g node-id="202"><path d="M 74.92 126.17 L 72.74 126.17 L 72.74 119.04 L 72.83 118.64 L 73.06 118.31 L 73.83 118.01 L 73.84 118.01 L 74.61 118.31 L 74.84 118.64 L 74.92 119.04 L 74.92 126.17 Z" fill="#bae637" fill-rule="evenodd" group-id="1,2,6,10,16" node-id="165" stroke-linecap="butt" stroke-width="1" target-height="8.1586685" target-width="2.1811523" target-x="72.742546" target-y="118.01256"></path></g><path d="M 76.01 127.92 L 73.82 127.92 L 73.82 124.19 L 74.13 123.49 L 74.88 123.19 L 74.95 123.19 L 75.70 123.49 L 76.01 124.19 L 76.01 127.92 Z" fill="#389e0d" fill-rule="evenodd" group-id="1,2,6,10" id="Fill-3" node-id="56" stroke-linecap="butt" stroke-width="1" target-height="4.724205" target-width="2.1875" target-x="73.82083" target-y="123.19249"></path><path d="M 73.06 126.17 L 70.86 126.17 L 70.86 122.12 L 71.17 121.41 L 71.92 121.11 L 72.00 121.11 L 72.75 121.41 L 73.06 122.12 L 73.06 126.17 Z" fill="#7cb305" fill-rule="evenodd" group-id="1,2,6,10" id="Fill-5" node-id="57" stroke-linecap="butt" stroke-width="1" target-height="5.054756" target-width="2.2020798" target-x="70.86042" target-y="121.11274"></path><path d="M 76.14 132.08 L 70.41 132.08 L 70.12 131.97 L 70.00 131.69 L 70.00 126.32 L 70.12 126.05 L 70.41 125.93 L 76.14 125.93 L 76.43 126.05 L 76.55 126.32 L 76.55 131.69 L 76.43 131.97 L 76.14 132.08" fill="#3b68b8" fill-rule="evenodd" group-id="1,2,6,10,17" node-id="171" stroke-linecap="butt" stroke-width="1" target-height="6.151634" target-width="6.5484314" target-x="70" target-y="125.93026"></path></g></g><path d="M 96.07 9.21 L 151.07 0.26 L 153.27 0.11 L 155.34 0.33 L 157.32 0.91 L 159.17 1.82 L 160.81 3.00 L 162.26 4.47 L 163.43 6.16 L 164.29 8.05 L 164.84 10.18 L 165.00 12.11 L 165.00 98.95 L 164.84 100.90 L 164.40 102.72 L 163.68 104.43 L 162.14 106.72 L 160.12 108.61 L 158.55 109.59 L 156.82 110.32 L 154.93 110.79 L 99.93 119.74 L 97.73 119.89 L 95.66 119.67 L 93.68 119.09 L 91.83 118.18 L 90.19 117.00 L 88.74 115.53 L 87.57 113.84 L 86.71 111.95 L 86.16 109.82 L 86.00 107.89 L 86.00 21.05 L 86.16 19.10 L 86.60 17.28 L 87.32 15.57 L 88.86 13.28 L 90.88 11.39 L 92.45 10.41 L 94.18 9.68 L 96.07 9.21 Z" fill="url(#linearGradient-3)" fill-rule="evenodd" group-id="1,2" id="矩形" node-id="60" stroke-linecap="butt" stroke-width="1" target-height="119.77206" target-width="79" target-x="86" target-y="0.11396742"></path><path d="M 98.27 12.45 L 151.27 4.02 L 153.28 3.89 L 155.18 4.10 L 156.99 4.64 L 158.69 5.47 L 160.19 6.56 L 161.51 7.91 L 162.58 9.47 L 163.36 11.21 L 163.86 13.16 L 164.00 14.89 L 164.00 97.00 L 163.68 99.64 L 162.78 102.03 L 161.37 104.14 L 159.51 105.87 L 157.28 107.13 L 154.73 107.86 L 101.73 116.29 L 99.72 116.42 L 97.82 116.21 L 96.01 115.68 L 94.31 114.84 L 92.81 113.75 L 91.49 112.40 L 90.42 110.85 L 89.64 109.11 L 89.14 107.15 L 89.00 105.43 L 89.00 23.32 L 89.32 20.68 L 90.22 18.29 L 91.63 16.18 L 93.49 14.45 L 95.72 13.19 L 98.27 12.45 Z" fill="url(#linearGradient-4)" fill-rule="evenodd" group-id="1,2" id="矩形备份-14" node-id="61" stroke-linecap="butt" stroke-width="1" target-height="112.52595" target-width="75" target-x="89" target-y="3.893755"></path><path d="M 95.00 19.77 L 95.00 104.37 L 95.33 106.78 L 96.23 108.91 L 97.64 110.73 L 99.46 112.14 L 101.59 113.04 L 104.00 113.37 L 105.49 113.24 L 160.00 104.12 L 160.00 104.12 L 161.91 9.00 L 95.00 19.77 Z" fill="#eaf2ff" fill-rule="evenodd" group-id="1,2" id="路径-3" node-id="62" stroke-linecap="butt" stroke-width="1" target-height="104.36831" target-width="66.90762" target-x="95" target-y="9"></path><path d="M 94.00 19.70 L 95.43 36.27 L 96.15 41.88 L 97.28 47.25 L 98.80 52.42 L 100.72 57.39 L 103.04 62.22 L 105.68 66.78 L 108.64 71.09 L 111.94 75.16 L 115.54 78.97 L 119.39 82.47 L 123.50 85.66 L 127.87 88.56 L 132.44 91.12 L 137.20 93.30 L 142.14 95.12 L 147.29 96.58 L 152.52 97.62 L 157.87 98.25 L 163.36 98.44 L 169.01 98.19 L 172.31 97.83 L 175.60 97.30 L 179.00 96.67 L 179.00 96.67 L 177.07 94.97 L 175.14 92.52 L 173.20 89.15 L 171.27 84.64 L 169.38 78.75 L 167.57 71.21 L 165.82 61.33 L 164.08 48.13 L 162.41 30.93 L 160.85 9.00 L 94.00 19.70 Z" fill="#000000" fill-rule="evenodd" filter="url(#filter-7)" group-id="1,2,7,11" node-id="182" stroke-linecap="butt" stroke-width="1" target-height="89.437584" target-width="85" target-x="94" target-y="9"></path><path d="M 94.00 19.70 L 95.43 36.27 L 96.15 41.88 L 97.28 47.25 L 98.80 52.42 L 100.72 57.39 L 103.04 62.22 L 105.68 66.78 L 108.64 71.09 L 111.94 75.16 L 115.54 78.97 L 119.39 82.47 L 123.50 85.66 L 127.87 88.56 L 132.44 91.12 L 137.20 93.30 L 142.14 95.12 L 147.29 96.58 L 152.52 97.62 L 157.87 98.25 L 163.36 98.44 L 169.01 98.19 L 172.31 97.83 L 175.60 97.30 L 179.00 96.67 L 179.00 96.67 L 177.07 94.97 L 175.14 92.52 L 173.20 89.15 L 171.27 84.64 L 169.38 78.75 L 167.57 71.21 L 165.82 61.33 L 164.08 48.13 L 162.41 30.93 L 160.85 9.00 L 94.00 19.70 Z" fill="url(#linearGradient-5)" fill-rule="evenodd" group-id="1,2,7" node-id="185" stroke-linecap="butt" stroke-width="1" target-height="89.437584" target-width="85" target-x="94" target-y="9"></path><path d="M 110.00 7.44 L 143.38 3.03 L 144.60 3.07 L 145.56 3.47 L 146.34 4.25 L 146.96 5.51 L 147.36 7.44 L 147.82 12.10 L 148.00 15.86 L 118.05 20.60 L 117.25 20.57 L 116.56 20.25 L 116.05 19.69 L 115.76 18.94 L 115.74 18.52 L 115.76 14.07 L 115.37 11.38 L 114.76 9.88 L 113.53 8.53 L 111.98 7.72 L 110.00 7.44 Z" fill="#4069bd" fill-rule="evenodd" group-id="1,2" id="路径-2备份" node-id="66" stroke-linecap="butt" stroke-width="1" target-height="17.572617" target-width="38" target-x="110" target-y="3.0323462"></path><path d="M 109.00 7.56 L 142.84 2.00 L 144.22 2.33 L 145.32 2.99 L 146.20 4.01 L 146.87 5.49 L 147.28 7.56 L 147.92 15.21 L 147.82 15.95 L 147.47 16.58 L 146.93 17.04 L 146.22 17.29 L 117.90 21.62 L 117.10 21.58 L 116.41 21.25 L 115.89 20.69 L 115.62 19.94 L 115.60 19.50 L 115.70 14.71 L 115.35 11.81 L 114.74 10.20 L 113.83 9.08 L 112.63 8.27 L 111.05 7.75 L 109.00 7.56 Z" fill="url(#linearGradient-8)" fill-rule="evenodd" group-id="1,2" id="路径-2" node-id="67" stroke-linecap="butt" stroke-width="1" target-height="19.615877" target-width="38.917694" target-x="109" target-y="2"></path><path d="M 105.23 26.56 L 107.55 26.16 L 109.19 26.11 L 110.67 26.44 L 112.03 27.16 L 113.16 28.20 L 113.98 29.48 L 114.48 31.04 L 114.56 31.77 L 114.73 35.23 L 114.62 36.74 L 114.18 38.07 L 113.43 39.28 L 112.41 40.28 L 111.21 41.00 L 109.77 41.44 L 107.45 41.84 L 105.81 41.89 L 104.33 41.56 L 102.97 40.84 L 101.84 39.80 L 101.02 38.52 L 100.52 36.96 L 100.44 36.23 L 100.27 32.77 L 100.38 31.26 L 100.82 29.93 L 101.57 28.72 L 102.59 27.72 L 103.79 27.00 L 105.23 26.56 Z" fill="#afc2f3" fill-rule="evenodd" group-id="1,2" id="矩形" node-id="68" stroke-linecap="butt" stroke-width="1" target-height="15.789028" target-width="14.469528" target-x="100.265236" target-y="26.105488"></path><path d="M 107.23 50.56 L 109.55 50.16 L 111.19 50.11 L 112.67 50.44 L 114.03 51.16 L 115.16 52.20 L 115.98 53.48 L 116.48 55.04 L 116.56 55.77 L 116.73 59.23 L 116.62 60.74 L 116.18 62.07 L 115.43 63.28 L 114.41 64.28 L 113.21 65.00 L 111.77 65.44 L 109.45 65.84 L 107.81 65.89 L 106.33 65.56 L 104.97 64.84 L 103.84 63.80 L 103.02 62.52 L 102.52 60.96 L 102.44 60.23 L 102.27 56.77 L 102.38 55.26 L 102.82 53.93 L 103.57 52.72 L 104.59 51.72 L 105.79 51.00 L 107.23 50.56 Z" fill="#afc2f3" fill-rule="evenodd" group-id="1,2" id="矩形备份-18" node-id="69" stroke-linecap="butt" stroke-width="1" target-height="15.789028" target-width="14.469528" target-x="102.265236" target-y="50.105488"></path><path d="M 116.71 25.29 L 156.00 19.26 L 156.65 19.29 L 157.20 19.56 L 157.62 20.01 L 157.84 20.61 L 157.86 20.72 L 157.78 21.43 L 157.46 22.03 L 156.96 22.47 L 156.29 22.71 L 117.00 28.74 L 116.35 28.71 L 115.80 28.44 L 115.38 27.99 L 115.16 27.39 L 115.14 27.28 L 115.22 26.57 L 115.54 25.97 L 116.04 25.53 L 116.71 25.29 Z" fill="#afc2f3" fill-rule="evenodd" group-id="1,2" id="矩形备份-15" node-id="70" stroke-linecap="butt" stroke-width="1" target-height="9.475464" target-width="42.713814" target-x="115.14309" target-y="19.262268"></path><path d="M 118.71 49.29 L 158.00 43.26 L 158.65 43.29 L 159.20 43.56 L 159.62 44.01 L 159.84 44.61 L 159.86 44.72 L 159.78 45.43 L 159.46 46.03 L 158.96 46.47 L 158.29 46.71 L 119.00 52.74 L 118.35 52.71 L 117.80 52.44 L 117.38 51.99 L 117.16 51.39 L 117.14 51.28 L 117.22 50.57 L 117.54 49.97 L 118.04 49.53 L 118.71 49.29 Z" fill="#afc2f3" fill-rule="evenodd" group-id="1,2" id="矩形备份-19" node-id="71" stroke-linecap="butt" stroke-width="1" target-height="9.475464" target-width="42.713814" target-x="117.14309" target-y="43.262268"></path><path d="M 116.71 30.29 L 156.00 24.26 L 156.65 24.29 L 157.20 24.56 L 157.62 25.01 L 157.84 25.61 L 157.86 25.72 L 157.78 26.43 L 157.46 27.03 L 156.96 27.47 L 156.29 27.71 L 117.00 33.74 L 116.35 33.71 L 115.80 33.44 L 115.38 32.99 L 115.16 32.39 L 115.14 32.28 L 115.22 31.57 L 115.54 30.97 L 116.04 30.53 L 116.71 30.29 Z" fill="#afc2f3" fill-rule="evenodd" group-id="1,2" id="矩形备份-16" node-id="72" stroke-linecap="butt" stroke-width="1" target-height="9.475464" target-width="42.713814" target-x="115.14309" target-y="24.262268"></path><path d="M 118.62 54.51 L 142.09 51.23 L 142.71 51.27 L 143.24 51.53 L 143.64 51.96 L 143.85 52.55 L 143.86 52.63 L 143.78 53.29 L 143.49 53.85 L 143.01 54.27 L 142.38 54.49 L 118.91 57.77 L 118.29 57.73 L 117.76 57.47 L 117.36 57.04 L 117.15 56.45 L 117.14 56.37 L 117.21 55.71 L 117.51 55.15 L 117.99 54.73 L 118.62 54.51 Z" fill="#afc2f3" fill-rule="evenodd" group-id="1,2" id="矩形备份-20" node-id="73" stroke-linecap="butt" stroke-width="1" target-height="6.546173" target-width="26.71003" target-x="117.14498" target-y="51.226913"></path><path d="M 117.62 37.52 L 127.09 36.22 L 127.71 36.26 L 128.25 36.53 L 128.64 36.97 L 128.85 37.56 L 128.86 37.63 L 128.79 38.29 L 128.49 38.85 L 128.01 39.27 L 127.38 39.48 L 117.91 40.78 L 117.29 40.74 L 116.75 40.47 L 116.36 40.03 L 116.15 39.44 L 116.14 39.37 L 116.21 38.71 L 116.51 38.15 L 116.99 37.73 L 117.62 37.52 Z" fill="#afc2f3" fill-rule="evenodd" group-id="1,2" id="矩形备份-17" node-id="74" stroke-linecap="butt" stroke-width="1" target-height="4.5563507" target-width="12.712471" target-x="116.14376" target-y="36.221825"></path><path d="M 119.62 59.52 L 129.09 58.22 L 129.71 58.26 L 130.25 58.53 L 130.64 58.97 L 130.85 59.56 L 130.86 59.63 L 130.79 60.29 L 130.49 60.85 L 130.01 61.27 L 129.38 61.48 L 119.91 62.78 L 119.29 62.74 L 118.75 62.47 L 118.36 62.03 L 118.15 61.44 L 118.14 61.37 L 118.21 60.71 L 118.51 60.15 L 118.99 59.73 L 119.62 59.52 Z" fill="#afc2f3" fill-rule="evenodd" group-id="1,2" id="矩形备份-21" node-id="75" stroke-linecap="butt" stroke-width="1" target-height="4.5563507" target-width="12.712471" target-x="118.14376" target-y="58.221825"></path></g></g></svg>