<?xml version="1.0" standalone="no"?><!DOCTYPE svg PUBLIC "-//W3C//DTD SVG 1.1//EN" "http://www.w3.org/Graphics/SVG/1.1/DTD/svg11.dtd"><svg t="1677556390143" class="icon" viewBox="0 0 1072 1024" version="1.1" xmlns="http://www.w3.org/2000/svg" p-id="17338" xmlns:xlink="http://www.w3.org/1999/xlink" width="33.5" height="32"><path d="M103.277616 0.000975A102.887521 102.887521 0 0 0 0 102.400878v819.19922c0 27.160355 10.873894 53.199187 30.232352 72.411359 19.358458 19.212172 45.641099 29.988543 73.045264 29.988543h485.18049c135.509204-124.001406 231.911398-210.651228 289.255344-259.851943V102.400878C877.71345 45.837122 831.487208 0.000975 774.435834 0.000975H103.277616z" fill="#3396FB" p-id="17339" data-spm-anchor-id="a313x.7781069.0.i4" class="selected"></path><path d="M733.963491 624.152762c-10.727609 0-21.065123 3.900949-28.62321 10.873894l-254.585663 231.570065a35.254824 35.254824 0 0 0-11.897893 26.038833v94.549243c0 20.333695 18.139411 36.815203 40.472342 36.815203h103.960282c10.727609 0 21.016361-3.900949 28.623211-10.825133l254.585662-231.570065a34.523396 34.523396 0 0 0 0-52.028903l-103.960282-94.598005a42.325293 42.325293 0 0 0-28.574449-10.825132z" fill="#65AFE7" p-id="17340"></path><path d="M898.97362 547.450359l54.564519 47.445288c25.697499 22.381693 28.818258 61.196132 6.972946 87.38125a60.172133 60.172133 0 0 1-85.674585 6.82666l-54.564519-47.396526a62.610226 62.610226 0 0 1-6.972946-87.38125 60.172133 60.172133 0 0 1 85.674585-6.826661z" fill="#65AFE7" p-id="17341"></path><path d="M938.763296 580.510899l15.359986 13.702082c25.502452 22.869312 28.281878 61.781274 6.339041 88.063916l-1.560379 1.950474a56.271185 56.271185 0 0 1-81.188494 5.461328v-81.87116a36.620156 36.620156 0 0 1 61.049846-27.30664z" fill="#BBE2FF" p-id="17342"></path><path d="M877.71345 535.649989c16.188937 4.19352 32.719207 20.772552 56.95385 42.032722 0 13.507035-1.365332 32.182826-4.095996 56.222422H877.71345c-0.146286-44.178244-0.146286-76.946212 0-98.255144z" fill="#BBE2FF" p-id="17343"></path><path d="M146.285575 195.048409m38.278059 0l411.062465 0q38.278059 0 38.278059 38.278058l0 0q0 38.278059-38.278059 38.278059l-411.062465 0q-38.278059 0-38.278059-38.278059l0 0q0-38.278059 38.278059-38.278058Z" fill="#FFB541" p-id="17344"></path><path d="M146.285575 341.333983m38.278059 0l264.77689 0q38.278059 0 38.278059 38.278059l0 0q0 38.278059-38.278059 38.278059l-264.77689 0q-38.278059 0-38.278059-38.278059l0 0q0-38.278059 38.278059-38.278059Z" fill="#FFB541" p-id="17345"></path><path d="M146.285575 487.619558m38.278059 0l118.491315 0q38.278059 0 38.278059 38.278059l0 0q0 38.278059-38.278059 38.278059l-118.491315 0q-38.278059 0-38.278059-38.278059l0 0q0-38.278059 38.278059-38.278059Z" fill="#FFB541" p-id="17346"></path></svg>