<?xml version="1.0" standalone="no"?><!DOCTYPE svg PUBLIC "-//W3C//DTD SVG 1.1//EN" "http://www.w3.org/Graphics/SVG/1.1/DTD/svg11.dtd"><svg t="1677561718443" class="icon" viewBox="0 0 1024 1024" version="1.1" xmlns="http://www.w3.org/2000/svg" p-id="32491" xmlns:xlink="http://www.w3.org/1999/xlink" width="32" height="32"><path d="M541.997208 117.157508m-100.711276 0a100.024 100.024 0 1 0 201.422552 0 100.024 100.024 0 1 0-201.422552 0Z" p-id="32492"></path><path d="M541.994187 519.998584m-100.711276 0a100.024 100.024 0 1 0 201.422552 0 100.024 100.024 0 1 0-201.422552 0Z" p-id="32493"></path><path d="M642.705463 922.840667c0 55.624594-45.089702 100.710269-100.711276 100.710269s-100.711276-45.085675-100.711276-100.710269c0-55.621574 45.089702-100.710269 100.711276-100.710269S642.705463 867.219093 642.705463 922.840667z" p-id="32494"></path></svg>