<?xml version="1.0" standalone="no"?><!DOCTYPE svg PUBLIC "-//W3C//DTD SVG 1.1//EN" "http://www.w3.org/Graphics/SVG/1.1/DTD/svg11.dtd"><svg t="1677130054608" class="icon" viewBox="0 0 1024 1024" version="1.1" xmlns="http://www.w3.org/2000/svg" p-id="31298" xmlns:xlink="http://www.w3.org/1999/xlink" width="32" height="32"><path d="M512 597.333333c146.176 0 353.621333 81.962667 362.368 176.64l0.298667 6.229334V810.666667a42.666667 42.666667 0 0 1-37.674667 42.368L832 853.333333h-640a42.666667 42.666667 0 0 1-42.368-37.674666L149.333333 810.666667v-30.464C149.333333 682.922667 362.666667 597.333333 512 597.333333z m0-469.333333c106.069333 0 192 85.930667 192 192S618.069333 512 512 512a191.957333 191.957333 0 0 1-192-192C320 213.930667 405.930667 128 512 128z" fill="#8a8a8a" fill-opacity=".87" p-id="31299"></path></svg>