<?xml version="1.0" standalone="no"?><!DOCTYPE svg PUBLIC "-//W3C//DTD SVG 1.1//EN" "http://www.w3.org/Graphics/SVG/1.1/DTD/svg11.dtd"><svg t="1677129704648" class="icon" viewBox="0 0 1024 1024" version="1.1" xmlns="http://www.w3.org/2000/svg" p-id="25595" width="32" height="32" xmlns:xlink="http://www.w3.org/1999/xlink"><path d="M512 853.333333H213.333333a42.666667 42.666667 0 0 1-42.666666-42.666666V213.333333a42.666667 42.666667 0 0 1 42.666666-42.666666h213.333334v128a128 128 0 0 0 128 128h128v42.666666a42.666667 42.666667 0 0 0 85.333333 0V384v-2.56a55.893333 55.893333 0 0 0-2.56-11.52v-3.84a45.653333 45.653333 0 0 0-8.106667-11.946667l-256-256a45.653333 45.653333 0 0 0-11.946666-8.106666 13.653333 13.653333 0 0 0-3.84 0 37.546667 37.546667 0 0 0-14.08-4.693334H213.333333a128 128 0 0 0-128 128v597.333334a128 128 0 0 0 128 128h298.666667a42.666667 42.666667 0 0 0 0-85.333334z m0-622.506666L622.506667 341.333333H554.666667a42.666667 42.666667 0 0 1-42.666667-42.666666zM298.666667 341.333333a42.666667 42.666667 0 0 0 0 85.333334h42.666666a42.666667 42.666667 0 0 0 0-85.333334z m627.626666 524.373334l-49.92-49.493334A146.773333 146.773333 0 0 0 853.333333 640a148.906667 148.906667 0 0 0-256 106.24 147.626667 147.626667 0 0 0 218.88 130.133333l49.493334 49.92a42.666667 42.666667 0 0 0 60.586666 0 42.666667 42.666667 0 0 0 0-60.586666z m-135.253333-74.666667a65.706667 65.706667 0 0 1-90.026667 0 64 64 0 0 1-18.346666-44.8 62.293333 62.293333 0 0 1 18.773333-45.226667 63.146667 63.146667 0 0 1 42.666667-18.346666A62.72 62.72 0 0 1 810.666667 746.24a64 64 0 0 1-19.626667 44.8zM554.666667 512H298.666667a42.666667 42.666667 0 0 0 0 85.333333h256a42.666667 42.666667 0 0 0 0-85.333333z m-85.333334 256a42.666667 42.666667 0 0 0 0-85.333333H298.666667a42.666667 42.666667 0 0 0 0 85.333333z" p-id="25596" fill="#8a8a8a"></path></svg>